<svg width="24" height="24" viewBox="0 0 24 24" fill="none" xmlns="http://www.w3.org/2000/svg">
    <g clip-path="url(#clip0_667_2880)">
        <rect width="24" height="24" fill="#EFEEEE" />
        <path
            d="M5.44238 7.75H6.85176V16H5.44238V9.25104L3.89551 10.2021V8.67812L5.44238 7.75ZM9.12982 9.91562C9.15273 9.15937 9.41628 8.52917 10.0007 8.09375C10.4934 7.71562 11.1236 7.57812 11.7309 7.57812C12.3611 7.57812 12.9913 7.72708 13.4611 8.09375C14.034 8.51771 14.3319 9.20521 14.3319 9.91562C14.3319 10.2594 14.2517 10.649 14.0454 10.9927C13.9309 11.2104 13.7819 11.3937 13.6215 11.5656C13.8965 11.7948 14.1142 12.0812 14.2632 12.3906C14.4694 12.7687 14.5611 13.1812 14.5496 13.5594C14.5382 14.3385 14.2632 15.049 13.6673 15.5302C13.1288 15.9885 12.4069 16.1719 11.7309 16.1719C11.0319 16.1719 10.2986 15.9656 9.7944 15.5302C9.22148 15.049 8.91211 14.3042 8.91211 13.5594C8.91211 13.1812 8.99232 12.7687 9.19857 12.3906C9.34753 12.0812 9.57669 11.7948 9.85169 11.5656C9.67982 11.3937 9.5194 11.2104 9.41628 10.9927C9.21003 10.649 9.11836 10.2594 9.12982 9.91562ZM11.7309 8.87292C11.4215 8.88437 11.1121 8.96458 10.8944 9.14792C10.6767 9.33125 10.585 9.60625 10.585 9.91562C10.585 10.2135 10.6767 10.5 10.8944 10.6719C11.1121 10.8552 11.4215 10.9354 11.7309 10.9354C12.0517 10.9354 12.3611 10.8552 12.5673 10.6719C12.7736 10.5 12.8652 10.2135 12.8652 9.91562C12.8767 9.60625 12.7736 9.33125 12.5673 9.14792C12.3611 8.96458 12.0517 8.86146 11.7309 8.87292ZM11.7309 12.2531C11.3527 12.2531 10.9861 12.3562 10.734 12.5969C10.4704 12.8375 10.3673 13.1927 10.3673 13.5594C10.3673 13.926 10.4704 14.2812 10.734 14.5219C10.9861 14.751 11.3527 14.8656 11.7309 14.8656C12.109 14.8656 12.4871 14.751 12.7277 14.5219C12.9798 14.2812 13.0944 13.926 13.0944 13.5594C13.0944 13.1927 12.9798 12.8375 12.7277 12.5969C12.4871 12.3562 12.109 12.2531 11.7309 12.2531ZM21.1059 11.325V12.4135H19.0663V14.4646H17.9778V12.4135H15.9268V11.325H17.9778V9.28542H19.0663V11.325H21.1059Z"
            fill="black" />
    </g>
    <defs>
        <clipPath id="clip0_667_2880">
            <rect width="24" height="24" rx="3" fill="white" />
        </clipPath>
    </defs>
</svg>