<svg width="24" height="24" viewBox="0 0 24 24" fill="none" xmlns="http://www.w3.org/2000/svg">
<g clip-path="url(#clip0_184_201)">
<path fill-rule="evenodd" clip-rule="evenodd" d="M22.0571 12.4569C21.9622 11.6022 21.7883 10.7475 21.601 9.82724C21.563 9.64004 21.5243 9.45012 21.4857 9.25693C21.3714 8.68567 21.3714 8.68546 21.2571 8.22836L21.1429 7.88551C20.8 4.91408 18.2857 2.85693 15.2 2.85693H7.65714C4.68571 2.85693 2.05714 4.91408 1.6 7.88551C1.6 7.92178 1.6 7.94653 1.59634 7.97074C1.58849 8.02281 1.56373 8.07233 1.48571 8.22836C1.48571 8.68551 1.48571 8.68551 1.37143 9.25693C1.25714 9.77122 1.17143 10.3141 1.08571 10.8569C1 11.3998 0.914286 11.9426 0.8 12.4569C0.114286 16.4569 0 17.1426 0 17.3712C0 19.0855 1.37143 20.5712 3.2 20.5712C4.11429 20.5712 4.91429 20.2284 5.48571 19.6569L8.8 16.4569H14.1714L17.4857 19.7712C18.0571 20.3426 18.8571 20.6855 19.7714 20.6855C21.4857 20.6855 22.9714 19.3141 22.9714 17.4855C22.8634 17.1615 22.7554 16.5313 22.1653 13.0875L22.0571 12.4569ZM14.8571 8.57122C15.4253 8.57122 15.8857 8.11072 15.8857 7.54265C15.8857 6.97458 15.4253 6.51408 14.8571 6.51408C14.289 6.51408 13.8286 6.97458 13.8286 7.54265C13.8286 8.11072 14.289 8.57122 14.8571 8.57122ZM18.0571 9.71408C18.0571 10.2821 17.5967 10.7426 17.0286 10.7426C16.4605 10.7426 16 10.2821 16 9.71408C16 9.14601 16.4605 8.68551 17.0286 8.68551C17.5967 8.68551 18.0571 9.14601 18.0571 9.71408ZM12 9.02836C11.6571 9.37122 11.6571 10.0569 12 10.3998C12.3429 10.7426 13.0286 10.7426 13.3714 10.3998C13.7143 10.0569 13.7143 9.37122 13.3714 9.02836C13.0286 8.68551 12.4571 8.68551 12 9.02836ZM14.8571 12.9141C15.4253 12.9141 15.8857 12.4536 15.8857 11.8855C15.8857 11.3174 15.4253 10.8569 14.8571 10.8569C14.289 10.8569 13.8286 11.3174 13.8286 11.8855C13.8286 12.4536 14.289 12.9141 14.8571 12.9141ZM7.31429 6.85693H8.68571V9.02836H10.8571V10.3998H8.68571V12.5712H7.31429V10.3998H5.14286V9.02836H7.31429V6.85693ZM18.8571 18.0569C19.0857 18.2855 19.3143 18.3998 19.6571 18.3998C20.3429 18.3998 20.8 17.9426 20.8 17.2569C20.8 17.3712 19.2 8.34265 19.2 8.22836C18.8571 6.2855 17.1429 4.91408 15.2 4.91408H7.65714C5.6 4.91408 4 6.2855 3.65714 8.22836C3.65714 8.34265 2.05714 17.3712 2.05714 17.3712C2.05714 18.0569 2.62857 18.5141 3.2 18.5141C3.54286 18.5141 3.77143 18.3998 4 18.1712L7.88571 14.2855H14.9714L15.3143 14.5141L18.8571 18.0569Z" fill="#5F6368"/>
</g>
<defs>
<clipPath id="clip0_184_201">
<rect width="24" height="24" fill="white"/>
</clipPath>
</defs>
</svg>
