<svg width="24" height="24" viewBox="0 0 24 24" fill="none" xmlns="http://www.w3.org/2000/svg">
<path fill-rule="evenodd" clip-rule="evenodd" d="M12 4C7.58172 4 4 7.58172 4 12C4 16.4183 7.58172 20 12 20C16.4183 20 20 16.4183 20 12C20 7.58172 16.4183 4 12 4ZM2 12C2 6.47715 6.47715 2 12 2C17.5228 2 22 6.47715 22 12C22 17.5228 17.5228 22 12 22C6.47715 22 2 17.5228 2 12Z" fill="#5F6368"/>
<path d="M12.2882 6.35205C13.3282 6.35205 14.1762 6.62405 14.8162 7.20005C15.4562 7.76005 15.7762 8.52805 15.7762 9.50405C15.7762 10.3041 15.5682 10.9601 15.1842 11.4721C15.0402 11.6321 14.5762 12.0641 13.8082 12.7361C13.5202 12.9601 13.3122 13.2321 13.1682 13.5201C13.0082 13.8401 12.9282 14.1921 12.9282 14.5761V14.8001H11.0882V14.5761C11.0882 13.9681 11.1842 13.4401 11.4082 13.0081C11.6162 12.5761 11.9842 12.1281 12.5122 11.6641C13.0242 11.2001 13.3442 10.8961 13.4722 10.7521C13.7602 10.4001 13.9042 10.0161 13.9042 9.61605C13.9042 9.08805 13.7442 8.67205 13.4562 8.36805C13.1522 8.06405 12.7202 7.92005 12.1762 7.92005C11.4882 7.92005 10.9922 8.12805 10.6722 8.56005C10.4002 8.92805 10.2722 9.45605 10.2722 10.1441H8.44824C8.44824 8.96005 8.78424 8.03205 9.48824 7.36005C10.1762 6.68805 11.1042 6.35205 12.2882 6.35205Z" fill="#5F6368"/>
<path d="M11 16H13V18H11V16Z" fill="#5F6368"/>
</svg>
