<svg width="32" height="32" viewBox="0 0 32 32" fill="none" xmlns="http://www.w3.org/2000/svg">
<g clip-path="url(#clip0_196_286)">
<path opacity="0.01" d="M0 0H32V32H0V0Z" fill="white"/>
<path d="M9.89514 3.23967C9.95884 3.09408 10.1027 3 10.2616 3H22.3884C22.6769 3 22.8705 3.29605 22.7549 3.56033L16.1049 18.7603C16.0412 18.9059 15.8973 19 15.7384 19H3.61161C3.32315 19 3.12952 18.7039 3.24514 18.4397L9.89514 3.23967Z" fill="#06DC7D"/>
<path d="M26.2423 13H13.5611C13.3197 13 13.1019 13.1446 13.0081 13.367L6.8862 27.8967C6.64668 28.4652 7.31787 28.9816 7.80599 28.6045L26.6091 14.0748C27.0619 13.7249 26.8145 13 26.2423 13Z" fill="#0056F9"/>
</g>
<defs>
<clipPath id="clip0_196_286">
<rect width="32" height="32" fill="white"/>
</clipPath>
</defs>
</svg>
