<svg width="42" height="42" viewBox="0 0 42 42" fill="none" xmlns="http://www.w3.org/2000/svg">
<g opacity="0.2">
<path d="M21.0001 2.51978C21.4456 2.51978 21.8729 2.69677 22.188 3.01184C22.5031 3.3269 22.6801 3.75421 22.6801 4.19978V9.23977C22.6801 9.68534 22.5031 10.1127 22.188 10.4277C21.8729 10.7428 21.4456 10.9198 21.0001 10.9198C20.5545 10.9198 20.1272 10.7428 19.8121 10.4277C19.4971 10.1127 19.3201 9.68534 19.3201 9.23977V4.19978C19.3201 3.75421 19.4971 3.3269 19.8121 3.01184C20.1272 2.69677 20.5545 2.51978 21.0001 2.51978Z" fill="black" fill-opacity="0.1"/>
<path d="M30.2399 4.99583C30.6258 5.21861 30.9073 5.58555 31.0226 6.01592C31.1379 6.44629 31.0776 6.90485 30.8548 7.29071L28.3348 11.6562C28.2253 11.8488 28.0788 12.0178 27.9037 12.1536C27.7286 12.2893 27.5283 12.3891 27.3145 12.4471C27.1007 12.5052 26.8775 12.5204 26.6578 12.4918C26.4381 12.4633 26.2262 12.3915 26.0343 12.2807C25.8424 12.17 25.6744 12.0223 25.5398 11.8463C25.4052 11.6703 25.3068 11.4694 25.2501 11.2552C25.1935 11.041 25.1798 10.8178 25.2098 10.5982C25.2398 10.3787 25.313 10.1673 25.425 9.97619L27.945 5.61071C28.1678 5.22485 28.5348 4.94331 28.9651 4.828C29.3955 4.71268 29.854 4.77305 30.2399 4.99583Z" fill="#191919" fill-opacity="0.5"/>
<path d="M37.0041 11.7599C37.2269 12.1457 37.2873 12.6043 37.172 13.0347C37.0567 13.465 36.7751 13.832 36.3893 14.0548L32.0238 16.5748C31.6381 16.794 31.1814 16.8518 30.7533 16.7356C30.3251 16.6194 29.9603 16.3385 29.7385 15.9543C29.5167 15.5701 29.4558 15.1138 29.5692 14.6849C29.6826 14.256 29.9611 13.8894 30.3438 13.665L34.7093 11.145C35.0951 10.9222 35.5537 10.8619 35.984 10.9772C36.4144 11.0925 36.7814 11.374 37.0041 11.7599Z" fill="#333333"/>
<path d="M39.4801 20.9996C39.4801 21.2202 39.4366 21.4387 39.3522 21.6425C39.2678 21.8463 39.144 22.0315 38.988 22.1875C38.832 22.3435 38.6468 22.4673 38.443 22.5517C38.2392 22.6361 38.0207 22.6796 37.8001 22.6796H32.7601C32.3145 22.6796 31.8872 22.5026 31.5721 22.1875C31.2571 21.8725 31.0801 21.4451 31.0801 20.9996C31.0801 20.554 31.2571 20.1267 31.5721 19.8116C31.8872 19.4966 32.3145 19.3196 32.7601 19.3196H37.8001C38.0207 19.3196 38.2392 19.363 38.443 19.4475C38.6468 19.5319 38.832 19.6556 38.988 19.8116C39.144 19.9676 39.2678 20.1528 39.3522 20.3567C39.4366 20.5605 39.4801 20.779 39.4801 20.9996Z" fill="#4C4C4C"/>
<path d="M37.0046 30.2399C36.7818 30.6258 36.4149 30.9073 35.9845 31.0226C35.5542 31.1379 35.0956 31.0776 34.7098 30.8548L30.3443 28.3348C30.1517 28.2253 29.9826 28.0788 29.8469 27.9037C29.7111 27.7286 29.6114 27.5283 29.5533 27.3145C29.4953 27.1007 29.4801 26.8775 29.5086 26.6578C29.5372 26.4381 29.6089 26.2262 29.7197 26.0343C29.8305 25.8424 29.9781 25.6744 30.1541 25.5398C30.3301 25.4052 30.531 25.3068 30.7452 25.2501C30.9594 25.1935 31.1827 25.1798 31.4022 25.2098C31.6217 25.2398 31.8331 25.313 32.0243 25.425L36.3898 27.945C36.7756 28.1678 37.0572 28.5348 37.1725 28.9651C37.2878 29.3955 37.2274 29.854 37.0046 30.2399Z" fill="#666666"/>
<path d="M30.2395 37.0046C29.8537 37.2274 29.3951 37.2878 28.9647 37.1725C28.5344 37.0571 28.1674 36.7756 27.9446 36.3897L25.4246 32.0243C25.2054 31.6386 25.1475 31.1819 25.2638 30.7537C25.38 30.3256 25.6609 29.9608 26.0451 29.739C26.4293 29.5172 26.8856 29.4563 27.3145 29.5697C27.7434 29.6831 28.11 29.9616 28.3344 30.3443L30.8544 34.7097C31.0772 35.0956 31.1375 35.5542 31.0222 35.9845C30.9069 36.4149 30.6254 36.7818 30.2395 37.0046Z" fill="#7F7F7F"/>
<path d="M21.0001 39.4801C20.7794 39.4801 20.561 39.4366 20.3572 39.3522C20.1533 39.2678 19.9681 39.144 19.8121 38.988C19.6561 38.832 19.5324 38.6468 19.448 38.443C19.3635 38.2392 19.3201 38.0207 19.3201 37.8001V32.7601C19.3201 32.3145 19.4971 31.8872 19.8121 31.5721C20.1272 31.2571 20.5545 31.0801 21.0001 31.0801C21.4456 31.0801 21.8729 31.2571 22.188 31.5721C22.5031 31.8872 22.6801 32.3145 22.6801 32.7601V37.8001C22.6801 38.0207 22.6366 38.2392 22.5522 38.443C22.4678 38.6468 22.344 38.832 22.188 38.988C22.032 39.144 21.8468 39.2678 21.643 39.3522C21.4392 39.4366 21.2207 39.4801 21.0001 39.4801Z" fill="#999999"/>
<path d="M11.7599 37.0046C11.374 36.7818 11.0925 36.4149 10.9772 35.9845C10.8619 35.5542 10.9222 35.0956 11.145 34.7098L13.665 30.3443C13.7745 30.1517 13.921 29.9826 14.0961 29.8469C14.2712 29.7111 14.4715 29.6114 14.6853 29.5533C14.8991 29.4953 15.1223 29.4801 15.342 29.5086C15.5617 29.5372 15.7736 29.6089 15.9655 29.7197C16.1573 29.8305 16.3254 29.9781 16.46 30.1541C16.5946 30.3301 16.693 30.531 16.7496 30.7452C16.8063 30.9594 16.82 31.1827 16.79 31.4022C16.7599 31.6217 16.6868 31.8331 16.5748 32.0243L14.0548 36.3898C13.832 36.7756 13.465 37.0572 13.0347 37.1725C12.6043 37.2878 12.1457 37.2274 11.7599 37.0046Z" fill="#ACACAC"/>
<path d="M4.99534 30.2398C4.77257 29.8539 4.7122 29.3953 4.82751 28.965C4.94282 28.5346 5.22437 28.1677 5.61022 27.9449L9.9757 25.4249C10.3614 25.2056 10.8181 25.1478 11.2462 25.264C11.6744 25.3803 12.0391 25.6611 12.261 26.0453C12.4828 26.4295 12.5436 26.8858 12.4302 27.3147C12.3168 27.7436 12.0384 28.1103 11.6557 28.3346L7.29022 30.8546C6.90436 31.0774 6.44581 31.1378 6.01544 31.0225C5.58507 30.9072 5.21813 30.6256 4.99534 30.2398Z" fill="#BFBFBF"/>
<path d="M2.51978 20.9996C2.51978 20.554 2.69677 20.1267 3.01184 19.8116C3.3269 19.4966 3.75421 19.3196 4.19978 19.3196H9.23977C9.68534 19.3196 10.1127 19.4966 10.4277 19.8116C10.7428 20.1267 10.9198 20.554 10.9198 20.9996C10.9198 21.4451 10.7428 21.8725 10.4277 22.1875C10.1127 22.5026 9.68534 22.6796 9.23977 22.6796H4.19978C3.75421 22.6796 3.3269 22.5026 3.01184 22.1875C2.69677 21.8725 2.51978 21.4451 2.51978 20.9996Z" fill="#CCCCCC"/>
<path d="M4.99534 11.7599C5.21813 11.374 5.58507 11.0925 6.01544 10.9772C6.44581 10.8619 6.90436 10.9222 7.29022 11.145L11.6557 13.665C11.8483 13.7745 12.0173 13.921 12.1531 14.0961C12.2888 14.2712 12.3886 14.4715 12.4467 14.6853C12.5047 14.8991 12.5199 15.1223 12.4913 15.342C12.4628 15.5617 12.391 15.7736 12.2803 15.9655C12.1695 16.1573 12.0218 16.3254 11.8458 16.46C11.6698 16.5946 11.469 16.693 11.2548 16.7496C11.0406 16.8063 10.8173 16.82 10.5978 16.79C10.3782 16.7599 10.1668 16.6868 9.9757 16.5748L5.61022 14.0548C5.22437 13.832 4.94282 13.465 4.82751 13.0347C4.7122 12.6043 4.77257 12.1457 4.99534 11.7599Z" fill="#E5E5E5"/>
<path d="M11.7599 4.99583C12.1457 4.77305 12.6043 4.71268 13.0347 4.828C13.465 4.94331 13.832 5.22485 14.0548 5.61071L16.5748 9.97619C16.794 10.3618 16.8518 10.8186 16.7356 11.2467C16.6194 11.6748 16.3385 12.0396 15.9543 12.2614C15.5701 12.4833 15.1138 12.5441 14.6849 12.4307C14.256 12.3173 13.8894 12.0389 13.665 11.6562L11.145 7.29071C10.9222 6.90485 10.8619 6.44629 10.9772 6.01592C11.0925 5.58555 11.374 5.21861 11.7599 4.99583Z" fill="#F2F2F2"/>
</g>
</svg>
