<svg width="16" height="16" viewBox="0 0 16 16" fill="none" xmlns="http://www.w3.org/2000/svg">
<path d="M13.5977 2.97526C13.4299 2.82293 13.209 2.73958 12.9805 2.73958C12.9597 2.73958 12.9388 2.73958 12.918 2.74102C12.9054 2.74244 12.7599 2.7511 12.5326 2.7511C12.1557 2.7511 11.42 2.72523 10.7231 2.56C9.82328 2.34589 8.78475 1.35439 8.48262 1.15897C8.33031 1.05985 8.155 1.01099 7.97934 1.01099C7.80441 1.01099 7.6291 1.05985 7.47714 1.15754C7.44051 1.18197 6.3531 2.30707 5.28945 2.56C4.59292 2.72523 3.8432 2.7511 3.46672 2.7511C3.23932 2.7511 3.09422 2.74244 3.07986 2.74102C3.0601 2.73958 3.04033 2.73958 3.02022 2.73958C2.79138 2.73958 2.56974 2.82291 2.40126 2.97526C2.21843 3.14049 2.11426 3.37182 2.11426 3.61466V5.80307C2.11426 13.8929 7.58746 14.9347 7.8195 14.9763C7.87268 14.985 7.9262 14.9893 7.97973 14.9893C8.03289 14.9893 8.08713 14.985 8.13957 14.9763C8.37197 14.9346 13.8854 13.8929 13.8854 5.80307V3.61466C13.8854 3.37182 13.7809 3.1405 13.5977 2.97526ZM11.5745 6.10482L7.77999 9.77616C7.75628 9.81491 7.72718 9.85377 7.69197 9.8868C7.58061 9.99457 7.43333 10.0463 7.28746 10.0434C7.14164 10.0463 6.99468 9.99457 6.88335 9.8868C6.84816 9.85377 6.8187 9.81491 6.79499 9.77616L4.76717 7.81333C4.55125 7.60495 4.55125 7.26731 4.76717 7.0575C4.98305 6.84919 5.33328 6.84919 5.5492 7.0575L7.28748 8.74015L10.7928 5.34906C11.0087 5.14069 11.3586 5.14069 11.5745 5.34906C11.7904 5.55735 11.7904 5.89649 11.5745 6.10482Z" fill="#008960"/>
</svg>
