<svg width="24" height="24" viewBox="0 0 24 24" fill="none" xmlns="http://www.w3.org/2000/svg">
<path fill-rule="evenodd" clip-rule="evenodd" d="M9.5 3C5.91015 3 3 5.91015 3 9.5C3 13.0899 5.91015 16 9.5 16C10.9217 16 12.2369 15.5435 13.3068 14.7692L18.2629 20.1757C18.636 20.5828 19.2686 20.6104 19.6757 20.2372C20.0828 19.864 20.1104 19.2314 19.7372 18.8243L14.7294 13.3612C15.5279 12.2816 16 10.9459 16 9.5C16 5.91015 13.0899 3 9.5 3ZM5 9.5C5 7.01472 7.01472 5 9.5 5C11.9853 5 14 7.01472 14 9.5C14 11.9853 11.9853 14 9.5 14C7.01472 14 5 11.9853 5 9.5Z" fill="#5F6368"/>
</svg>
